<svg width="14" height="14" viewBox="0 0 14 14" fill="none" xmlns="http://www.w3.org/2000/svg">
<path d="M5.24935 12.8327H8.74935C11.666 12.8327 12.8327 11.666 12.8327 8.74935V5.24935C12.8327 2.33268 11.666 1.16602 8.74935 1.16602H5.24935C2.33268 1.16602 1.16602 2.33268 1.16602 5.24935V8.74935C1.16602 11.666 2.33268 12.8327 5.24935 12.8327Z" stroke="#4B5563" stroke-width="1.5" stroke-linecap="round" stroke-linejoin="round"/>
<path d="M5.25065 5.83333C5.89498 5.83333 6.41732 5.311 6.41732 4.66667C6.41732 4.02233 5.89498 3.5 5.25065 3.5C4.60632 3.5 4.08398 4.02233 4.08398 4.66667C4.08398 5.311 4.60632 5.83333 5.25065 5.83333Z" stroke="#4B5563" stroke-width="1.5" stroke-linecap="round" stroke-linejoin="round"/>
<path d="M1.55664 11.0537L4.43247 9.12284C4.89331 8.81367 5.55831 8.84867 5.97247 9.20451L6.16497 9.37367C6.61997 9.7645 7.35497 9.7645 7.80997 9.37367L10.2366 7.29117C10.6916 6.90034 11.4266 6.90034 11.8816 7.29117L12.8325 8.10784" stroke="#4B5563" stroke-width="1.5" stroke-linecap="round" stroke-linejoin="round"/>
</svg>
